%TF.GenerationSoftware,KiCad,Pcbnew,(5.1.9)-1*%
%TF.CreationDate,2021-05-06T12:27:20-07:00*%
%TF.ProjectId,CPE301D.FINAL,43504533-3031-4442-9e46-494e414c2e6b,rev?*%
%TF.SameCoordinates,Original*%
%TF.FileFunction,Copper,L2,Bot*%
%TF.FilePolarity,Positive*%
%FSLAX46Y46*%
G04 Gerber Fmt 4.6, Leading zero omitted, Abs format (unit mm)*
G04 Created by KiCad (PCBNEW (5.1.9)-1) date 2021-05-06 12:27:20*
%MOMM*%
%LPD*%
G01*
G04 APERTURE LIST*
%TA.AperFunction,ComponentPad*%
%ADD10C,1.440000*%
%TD*%
%TA.AperFunction,ComponentPad*%
%ADD11C,2.600000*%
%TD*%
%TA.AperFunction,ComponentPad*%
%ADD12R,2.600000X2.600000*%
%TD*%
%TA.AperFunction,ComponentPad*%
%ADD13O,1.727200X2.032000*%
%TD*%
%TA.AperFunction,ComponentPad*%
%ADD14O,2.032000X1.727200*%
%TD*%
%TA.AperFunction,ComponentPad*%
%ADD15O,1.350000X1.350000*%
%TD*%
%TA.AperFunction,ComponentPad*%
%ADD16R,1.350000X1.350000*%
%TD*%
%TA.AperFunction,ViaPad*%
%ADD17C,0.600000*%
%TD*%
%TA.AperFunction,Conductor*%
%ADD18C,0.250000*%
%TD*%
G04 APERTURE END LIST*
D10*
%TO.P,RV1,3*%
%TO.N,GND*%
X157378000Y-116205000D03*
%TO.P,RV1,2*%
%TO.N,/PC0*%
X154838000Y-113665000D03*
%TO.P,RV1,1*%
%TO.N,+5V*%
X152298000Y-116205000D03*
%TD*%
D11*
%TO.P,J2,2*%
%TO.N,Net-(J2-Pad2)*%
X118618000Y-98425000D03*
D12*
%TO.P,J2,1*%
%TO.N,Net-(J2-Pad1)*%
X118618000Y-93345000D03*
%TD*%
D11*
%TO.P,J1,2*%
%TO.N,Net-(J1-Pad2)*%
X118618000Y-113665000D03*
D12*
%TO.P,J1,1*%
%TO.N,Net-(J1-Pad1)*%
X118618000Y-108585000D03*
%TD*%
D13*
%TO.P,P9,8*%
%TO.N,/Vcc*%
X145288000Y-84455000D03*
%TO.P,P9,7*%
%TO.N,/PB2*%
X142748000Y-84455000D03*
%TO.P,P9,6*%
%TO.N,/PB3*%
X140208000Y-84455000D03*
%TO.P,P9,5*%
%TO.N,/PB4*%
X137668000Y-84455000D03*
%TO.P,P9,4*%
%TO.N,/PB5*%
X135128000Y-84455000D03*
%TO.P,P9,3*%
%TO.N,/PC5*%
X132588000Y-84455000D03*
%TO.P,P9,2*%
%TO.N,/PC4*%
X130048000Y-84455000D03*
%TO.P,P9,1*%
%TO.N,GND*%
X127508000Y-84455000D03*
%TD*%
D14*
%TO.P,P12,8*%
%TO.N,GND*%
X130048000Y-112395000D03*
%TO.P,P12,7*%
%TO.N,/Vcc*%
X130048000Y-109855000D03*
%TO.P,P12,6*%
%TO.N,Net-(J1-Pad1)*%
X130048000Y-107315000D03*
%TO.P,P12,5*%
%TO.N,Net-(J1-Pad2)*%
X130048000Y-104775000D03*
%TO.P,P12,4*%
%TO.N,Net-(J2-Pad1)*%
X130048000Y-102235000D03*
%TO.P,P12,3*%
%TO.N,Net-(J2-Pad2)*%
X130048000Y-99695000D03*
%TO.P,P12,2*%
%TO.N,Net-(P12-Pad2)*%
X130048000Y-97155000D03*
%TO.P,P12,1*%
%TO.N,Net-(P12-Pad1)*%
X130048000Y-94615000D03*
%TD*%
%TO.P,P11,8*%
%TO.N,GND*%
X140208000Y-112395000D03*
%TO.P,P11,7*%
%TO.N,Net-(P11-Pad7)*%
X140208000Y-109855000D03*
%TO.P,P11,6*%
%TO.N,/PB1*%
X140208000Y-107315000D03*
%TO.P,P11,5*%
%TO.N,/PC2*%
X140208000Y-104775000D03*
%TO.P,P11,4*%
%TO.N,/PC3*%
X140208000Y-102235000D03*
%TO.P,P11,3*%
%TO.N,/PD0*%
X140208000Y-99695000D03*
%TO.P,P11,2*%
%TO.N,Net-(P11-Pad2)*%
X140208000Y-97155000D03*
%TO.P,P11,1*%
%TO.N,Net-(P11-Pad1)*%
X140208000Y-94615000D03*
%TD*%
D15*
%TO.P,P10,3*%
%TO.N,/Vcc*%
X169228000Y-100965000D03*
%TO.P,P10,2*%
%TO.N,/PC1*%
X171228000Y-100965000D03*
D16*
%TO.P,P10,1*%
%TO.N,GND*%
X173228000Y-100965000D03*
%TD*%
D13*
%TO.P,P1,1*%
%TO.N,Net-(P1-Pad1)*%
X138938000Y-123825000D03*
%TO.P,P1,2*%
%TO.N,/Vcc*%
X141478000Y-123825000D03*
%TO.P,P1,3*%
%TO.N,/Reset*%
X144018000Y-123825000D03*
%TO.P,P1,4*%
%TO.N,+3V3*%
X146558000Y-123825000D03*
%TO.P,P1,5*%
%TO.N,+5V*%
X149098000Y-123825000D03*
%TO.P,P1,6*%
%TO.N,GND*%
X151638000Y-123825000D03*
%TO.P,P1,7*%
X154178000Y-123825000D03*
%TO.P,P1,8*%
%TO.N,/Vin*%
X156718000Y-123825000D03*
%TD*%
%TO.P,P2,1*%
%TO.N,/PC0*%
X161798000Y-123825000D03*
%TO.P,P2,2*%
%TO.N,/PC1*%
X164338000Y-123825000D03*
%TO.P,P2,3*%
%TO.N,/PC2*%
X166878000Y-123825000D03*
%TO.P,P2,4*%
%TO.N,/PC3*%
X169418000Y-123825000D03*
%TO.P,P2,5*%
%TO.N,/PC4*%
X171958000Y-123825000D03*
%TO.P,P2,6*%
%TO.N,/PC5*%
X174498000Y-123825000D03*
%TD*%
%TO.P,P3,1*%
%TO.N,/PC5(an)*%
X129794000Y-75565000D03*
%TO.P,P3,2*%
%TO.N,/PC4(an)*%
X132334000Y-75565000D03*
%TO.P,P3,3*%
%TO.N,/AREF*%
X134874000Y-75565000D03*
%TO.P,P3,4*%
%TO.N,GND*%
X137414000Y-75565000D03*
%TO.P,P3,5*%
%TO.N,/PB5*%
X139954000Y-75565000D03*
%TO.P,P3,6*%
%TO.N,/PB4*%
X142494000Y-75565000D03*
%TO.P,P3,7*%
%TO.N,/PB3*%
X145034000Y-75565000D03*
%TO.P,P3,8*%
%TO.N,/PB2*%
X147574000Y-75565000D03*
%TO.P,P3,9*%
%TO.N,/PB1*%
X150114000Y-75565000D03*
%TO.P,P3,10*%
%TO.N,/PB0*%
X152654000Y-75565000D03*
%TD*%
%TO.P,P4,1*%
%TO.N,/PD7*%
X156718000Y-75565000D03*
%TO.P,P4,2*%
%TO.N,/PD6*%
X159258000Y-75565000D03*
%TO.P,P4,3*%
%TO.N,/PD5*%
X161798000Y-75565000D03*
%TO.P,P4,4*%
%TO.N,/PD4*%
X164338000Y-75565000D03*
%TO.P,P4,5*%
%TO.N,/PD3*%
X166878000Y-75565000D03*
%TO.P,P4,6*%
%TO.N,/PD2*%
X169418000Y-75565000D03*
%TO.P,P4,7*%
%TO.N,/PD1(RX)*%
X171958000Y-75565000D03*
%TO.P,P4,8*%
%TO.N,/PD0(TX)*%
X174498000Y-75565000D03*
%TD*%
D17*
%TO.N,/PB1*%
X147828000Y-89535000D03*
%TD*%
D18*
%TO.N,GND*%
X130048000Y-112395000D02*
X141478000Y-112395000D01*
X151638000Y-122555000D02*
X141478000Y-112395000D01*
X151638000Y-123825000D02*
X151638000Y-122555000D01*
X154178000Y-123825000D02*
X151638000Y-123825000D01*
X157378000Y-120625000D02*
X154178000Y-123825000D01*
X157378000Y-116205000D02*
X157378000Y-120625000D01*
%TO.N,Net-(J1-Pad2)*%
X127508000Y-104775000D02*
X118618000Y-113665000D01*
X130048000Y-104775000D02*
X127508000Y-104775000D01*
%TO.N,/Vcc*%
X169228000Y-100965000D02*
X163068000Y-100965000D01*
X146558000Y-84455000D02*
X145288000Y-84455000D01*
X145288000Y-84455000D02*
X145288000Y-90805000D01*
X145288000Y-90805000D02*
X152908000Y-90805000D01*
X152908000Y-90805000D02*
X163068000Y-100965000D01*
%TO.N,/PC2*%
X147828000Y-104775000D02*
X166878000Y-123825000D01*
X141478000Y-104775000D02*
X147828000Y-104775000D01*
X141478000Y-104775000D02*
X140208000Y-104775000D01*
%TO.N,/PC3*%
X168711348Y-123825000D02*
X169418000Y-123825000D01*
X147121348Y-102235000D02*
X168711348Y-123825000D01*
X141478000Y-102235000D02*
X147121348Y-102235000D01*
X141478000Y-102235000D02*
X140208000Y-102235000D01*
%TO.N,/PC4*%
X171958000Y-114935000D02*
X171958000Y-123825000D01*
X145288000Y-95885000D02*
X152908000Y-95885000D01*
X142748000Y-93345000D02*
X145288000Y-95885000D01*
X152908000Y-95885000D02*
X171958000Y-114935000D01*
X130048000Y-84455000D02*
X138938000Y-93345000D01*
X138938000Y-93345000D02*
X140208000Y-93345000D01*
X140208000Y-93345000D02*
X142748000Y-93345000D01*
%TO.N,/PC5*%
X152908000Y-93345000D02*
X174498000Y-114935000D01*
X145288000Y-93345000D02*
X152908000Y-93345000D01*
X143198010Y-91255010D02*
X145288000Y-93345000D01*
X174498000Y-114935000D02*
X174498000Y-123825000D01*
X139388010Y-91255010D02*
X143198010Y-91255010D01*
X132588000Y-84455000D02*
X139388010Y-91255010D01*
%TO.N,/PB5*%
X135128000Y-80391000D02*
X139954000Y-75565000D01*
X135128000Y-84455000D02*
X135128000Y-80391000D01*
%TO.N,/PB4*%
X141787348Y-75565000D02*
X142494000Y-75565000D01*
X137668000Y-79684348D02*
X141787348Y-75565000D01*
X137668000Y-84455000D02*
X137668000Y-79684348D01*
%TO.N,/PB3*%
X144327348Y-75565000D02*
X145034000Y-75565000D01*
X140208000Y-79684348D02*
X144327348Y-75565000D01*
X140208000Y-84455000D02*
X140208000Y-79684348D01*
%TO.N,/PB2*%
X142748000Y-80391000D02*
X147574000Y-75565000D01*
X142748000Y-84455000D02*
X142748000Y-80391000D01*
%TO.N,/PB1*%
X147828000Y-77851000D02*
X150114000Y-75565000D01*
X147828000Y-89535000D02*
X147828000Y-77851000D01*
%TO.N,Net-(J2-Pad1)*%
X127508000Y-102235000D02*
X118618000Y-93345000D01*
X130048000Y-102235000D02*
X127508000Y-102235000D01*
%TD*%
M02*
