M48
INCH,TZ
T1C0.0157
T2C0.0315
T3C0.0400
T4C0.0512
%
G90
G05
T1
X58200Y-35250
T2
X59960Y-45750
X60960Y-44750
X61960Y-45750
X66625Y-39750
X67413Y-39750
X68200Y-39750
T3
X50200Y-33250
X51100Y-29750
X51200Y-33250
X51200Y-37250
X51200Y-38250
X51200Y-39250
X51200Y-40250
X51200Y-41250
X51200Y-42250
X51200Y-43250
X51200Y-44250
X52100Y-29750
X52200Y-33250
X53100Y-29750
X53200Y-33250
X54100Y-29750
X54200Y-33250
X54700Y-48750
X55100Y-29750
X55200Y-33250
X55200Y-37250
X55200Y-38250
X55200Y-39250
X55200Y-40250
X55200Y-41250
X55200Y-42250
X55200Y-43250
X55200Y-44250
X55700Y-48750
X56100Y-29750
X56200Y-33250
X56700Y-48750
X57100Y-29750
X57200Y-33250
X57700Y-48750
X58100Y-29750
X58700Y-48750
X59100Y-29750
X59700Y-48750
X60100Y-29750
X60700Y-48750
X61700Y-29750
X61700Y-48750
X62700Y-29750
X63700Y-29750
X63700Y-48750
X64700Y-29750
X64700Y-48750
X65700Y-29750
X65700Y-48750
X66700Y-29750
X66700Y-48750
X67700Y-29750
X67700Y-48750
X68700Y-29750
X68700Y-48750
T4
X46700Y-36750
X46700Y-38750
X46700Y-42750
X46700Y-44750
T0
M30
