%TF.GenerationSoftware,KiCad,Pcbnew,(5.1.9)-1*%
%TF.CreationDate,2021-05-06T12:27:20-07:00*%
%TF.ProjectId,CPE301D.FINAL,43504533-3031-4442-9e46-494e414c2e6b,rev?*%
%TF.SameCoordinates,Original*%
%TF.FileFunction,Copper,L1,Top*%
%TF.FilePolarity,Positive*%
%FSLAX46Y46*%
G04 Gerber Fmt 4.6, Leading zero omitted, Abs format (unit mm)*
G04 Created by KiCad (PCBNEW (5.1.9)-1) date 2021-05-06 12:27:20*
%MOMM*%
%LPD*%
G01*
G04 APERTURE LIST*
%TA.AperFunction,NonConductor*%
%ADD10C,0.200000*%
%TD*%
%TA.AperFunction,ComponentPad*%
%ADD11C,1.440000*%
%TD*%
%TA.AperFunction,ComponentPad*%
%ADD12C,2.600000*%
%TD*%
%TA.AperFunction,ComponentPad*%
%ADD13R,2.600000X2.600000*%
%TD*%
%TA.AperFunction,ComponentPad*%
%ADD14O,1.727200X2.032000*%
%TD*%
%TA.AperFunction,SMDPad,CuDef*%
%ADD15R,1.700000X0.900000*%
%TD*%
%TA.AperFunction,ComponentPad*%
%ADD16O,2.032000X1.727200*%
%TD*%
%TA.AperFunction,ComponentPad*%
%ADD17O,1.350000X1.350000*%
%TD*%
%TA.AperFunction,ComponentPad*%
%ADD18R,1.350000X1.350000*%
%TD*%
%TA.AperFunction,ViaPad*%
%ADD19C,0.600000*%
%TD*%
%TA.AperFunction,Conductor*%
%ADD20C,0.250000*%
%TD*%
G04 APERTURE END LIST*
D10*
X114639428Y-120713571D02*
X114582285Y-120770714D01*
X114410857Y-120827857D01*
X114296571Y-120827857D01*
X114125142Y-120770714D01*
X114010857Y-120656428D01*
X113953714Y-120542142D01*
X113896571Y-120313571D01*
X113896571Y-120142142D01*
X113953714Y-119913571D01*
X114010857Y-119799285D01*
X114125142Y-119685000D01*
X114296571Y-119627857D01*
X114410857Y-119627857D01*
X114582285Y-119685000D01*
X114639428Y-119742142D01*
X115153714Y-120827857D02*
X115153714Y-119627857D01*
X115610857Y-119627857D01*
X115725142Y-119685000D01*
X115782285Y-119742142D01*
X115839428Y-119856428D01*
X115839428Y-120027857D01*
X115782285Y-120142142D01*
X115725142Y-120199285D01*
X115610857Y-120256428D01*
X115153714Y-120256428D01*
X116353714Y-120199285D02*
X116753714Y-120199285D01*
X116925142Y-120827857D02*
X116353714Y-120827857D01*
X116353714Y-119627857D01*
X116925142Y-119627857D01*
X117325142Y-119627857D02*
X118068000Y-119627857D01*
X117668000Y-120085000D01*
X117839428Y-120085000D01*
X117953714Y-120142142D01*
X118010857Y-120199285D01*
X118068000Y-120313571D01*
X118068000Y-120599285D01*
X118010857Y-120713571D01*
X117953714Y-120770714D01*
X117839428Y-120827857D01*
X117496571Y-120827857D01*
X117382285Y-120770714D01*
X117325142Y-120713571D01*
X118810857Y-119627857D02*
X118925142Y-119627857D01*
X119039428Y-119685000D01*
X119096571Y-119742142D01*
X119153714Y-119856428D01*
X119210857Y-120085000D01*
X119210857Y-120370714D01*
X119153714Y-120599285D01*
X119096571Y-120713571D01*
X119039428Y-120770714D01*
X118925142Y-120827857D01*
X118810857Y-120827857D01*
X118696571Y-120770714D01*
X118639428Y-120713571D01*
X118582285Y-120599285D01*
X118525142Y-120370714D01*
X118525142Y-120085000D01*
X118582285Y-119856428D01*
X118639428Y-119742142D01*
X118696571Y-119685000D01*
X118810857Y-119627857D01*
X120353714Y-120827857D02*
X119668000Y-120827857D01*
X120010857Y-120827857D02*
X120010857Y-119627857D01*
X119896571Y-119799285D01*
X119782285Y-119913571D01*
X119668000Y-119970714D01*
X120868000Y-120827857D02*
X120868000Y-119627857D01*
X121153714Y-119627857D01*
X121325142Y-119685000D01*
X121439428Y-119799285D01*
X121496571Y-119913571D01*
X121553714Y-120142142D01*
X121553714Y-120313571D01*
X121496571Y-120542142D01*
X121439428Y-120656428D01*
X121325142Y-120770714D01*
X121153714Y-120827857D01*
X120868000Y-120827857D01*
X123382285Y-120199285D02*
X122982285Y-120199285D01*
X122982285Y-120827857D02*
X122982285Y-119627857D01*
X123553714Y-119627857D01*
X124010857Y-120827857D02*
X124010857Y-120027857D01*
X124010857Y-119627857D02*
X123953714Y-119685000D01*
X124010857Y-119742142D01*
X124068000Y-119685000D01*
X124010857Y-119627857D01*
X124010857Y-119742142D01*
X124582285Y-120027857D02*
X124582285Y-120827857D01*
X124582285Y-120142142D02*
X124639428Y-120085000D01*
X124753714Y-120027857D01*
X124925142Y-120027857D01*
X125039428Y-120085000D01*
X125096571Y-120199285D01*
X125096571Y-120827857D01*
X126182285Y-120827857D02*
X126182285Y-120199285D01*
X126125142Y-120085000D01*
X126010857Y-120027857D01*
X125782285Y-120027857D01*
X125668000Y-120085000D01*
X126182285Y-120770714D02*
X126068000Y-120827857D01*
X125782285Y-120827857D01*
X125668000Y-120770714D01*
X125610857Y-120656428D01*
X125610857Y-120542142D01*
X125668000Y-120427857D01*
X125782285Y-120370714D01*
X126068000Y-120370714D01*
X126182285Y-120313571D01*
X126925142Y-120827857D02*
X126810857Y-120770714D01*
X126753714Y-120656428D01*
X126753714Y-119627857D01*
X128296571Y-120827857D02*
X128296571Y-119627857D01*
X128753714Y-119627857D01*
X128868000Y-119685000D01*
X128925142Y-119742142D01*
X128982285Y-119856428D01*
X128982285Y-120027857D01*
X128925142Y-120142142D01*
X128868000Y-120199285D01*
X128753714Y-120256428D01*
X128296571Y-120256428D01*
X129496571Y-120827857D02*
X129496571Y-120027857D01*
X129496571Y-120256428D02*
X129553714Y-120142142D01*
X129610857Y-120085000D01*
X129725142Y-120027857D01*
X129839428Y-120027857D01*
X130410857Y-120827857D02*
X130296571Y-120770714D01*
X130239428Y-120713571D01*
X130182285Y-120599285D01*
X130182285Y-120256428D01*
X130239428Y-120142142D01*
X130296571Y-120085000D01*
X130410857Y-120027857D01*
X130582285Y-120027857D01*
X130696571Y-120085000D01*
X130753714Y-120142142D01*
X130810857Y-120256428D01*
X130810857Y-120599285D01*
X130753714Y-120713571D01*
X130696571Y-120770714D01*
X130582285Y-120827857D01*
X130410857Y-120827857D01*
X131325142Y-120027857D02*
X131325142Y-121056428D01*
X131268000Y-121170714D01*
X131153714Y-121227857D01*
X131096571Y-121227857D01*
X131325142Y-119627857D02*
X131268000Y-119685000D01*
X131325142Y-119742142D01*
X131382285Y-119685000D01*
X131325142Y-119627857D01*
X131325142Y-119742142D01*
X132353714Y-120770714D02*
X132239428Y-120827857D01*
X132010857Y-120827857D01*
X131896571Y-120770714D01*
X131839428Y-120656428D01*
X131839428Y-120199285D01*
X131896571Y-120085000D01*
X132010857Y-120027857D01*
X132239428Y-120027857D01*
X132353714Y-120085000D01*
X132410857Y-120199285D01*
X132410857Y-120313571D01*
X131839428Y-120427857D01*
X133439428Y-120770714D02*
X133325142Y-120827857D01*
X133096571Y-120827857D01*
X132982285Y-120770714D01*
X132925142Y-120713571D01*
X132868000Y-120599285D01*
X132868000Y-120256428D01*
X132925142Y-120142142D01*
X132982285Y-120085000D01*
X133096571Y-120027857D01*
X133325142Y-120027857D01*
X133439428Y-120085000D01*
X133782285Y-120027857D02*
X134239428Y-120027857D01*
X133953714Y-119627857D02*
X133953714Y-120656428D01*
X134010857Y-120770714D01*
X134125142Y-120827857D01*
X134239428Y-120827857D01*
X114353714Y-122199285D02*
X114525142Y-122256428D01*
X114582285Y-122313571D01*
X114639428Y-122427857D01*
X114639428Y-122599285D01*
X114582285Y-122713571D01*
X114525142Y-122770714D01*
X114410857Y-122827857D01*
X113953714Y-122827857D01*
X113953714Y-121627857D01*
X114353714Y-121627857D01*
X114468000Y-121685000D01*
X114525142Y-121742142D01*
X114582285Y-121856428D01*
X114582285Y-121970714D01*
X114525142Y-122085000D01*
X114468000Y-122142142D01*
X114353714Y-122199285D01*
X113953714Y-122199285D01*
X115153714Y-122827857D02*
X115153714Y-122027857D01*
X115153714Y-122256428D02*
X115210857Y-122142142D01*
X115268000Y-122085000D01*
X115382285Y-122027857D01*
X115496571Y-122027857D01*
X115896571Y-122827857D02*
X115896571Y-122027857D01*
X115896571Y-121627857D02*
X115839428Y-121685000D01*
X115896571Y-121742142D01*
X115953714Y-121685000D01*
X115896571Y-121627857D01*
X115896571Y-121742142D01*
X116982285Y-122827857D02*
X116982285Y-122199285D01*
X116925142Y-122085000D01*
X116810857Y-122027857D01*
X116582285Y-122027857D01*
X116468000Y-122085000D01*
X116982285Y-122770714D02*
X116868000Y-122827857D01*
X116582285Y-122827857D01*
X116468000Y-122770714D01*
X116410857Y-122656428D01*
X116410857Y-122542142D01*
X116468000Y-122427857D01*
X116582285Y-122370714D01*
X116868000Y-122370714D01*
X116982285Y-122313571D01*
X117553714Y-122027857D02*
X117553714Y-122827857D01*
X117553714Y-122142142D02*
X117610857Y-122085000D01*
X117725142Y-122027857D01*
X117896571Y-122027857D01*
X118010857Y-122085000D01*
X118068000Y-122199285D01*
X118068000Y-122827857D01*
X119439428Y-121627857D02*
X119725142Y-122827857D01*
X119953714Y-121970714D01*
X120182285Y-122827857D01*
X120468000Y-121627857D01*
X121096571Y-122827857D02*
X120982285Y-122770714D01*
X120925142Y-122713571D01*
X120868000Y-122599285D01*
X120868000Y-122256428D01*
X120925142Y-122142142D01*
X120982285Y-122085000D01*
X121096571Y-122027857D01*
X121268000Y-122027857D01*
X121382285Y-122085000D01*
X121439428Y-122142142D01*
X121496571Y-122256428D01*
X121496571Y-122599285D01*
X121439428Y-122713571D01*
X121382285Y-122770714D01*
X121268000Y-122827857D01*
X121096571Y-122827857D01*
X122182285Y-122827857D02*
X122068000Y-122770714D01*
X122010857Y-122656428D01*
X122010857Y-121627857D01*
X123153714Y-122827857D02*
X123153714Y-122199285D01*
X123096571Y-122085000D01*
X122982285Y-122027857D01*
X122753714Y-122027857D01*
X122639428Y-122085000D01*
X123153714Y-122770714D02*
X123039428Y-122827857D01*
X122753714Y-122827857D01*
X122639428Y-122770714D01*
X122582285Y-122656428D01*
X122582285Y-122542142D01*
X122639428Y-122427857D01*
X122753714Y-122370714D01*
X123039428Y-122370714D01*
X123153714Y-122313571D01*
X123725142Y-122827857D02*
X123725142Y-121627857D01*
X123839428Y-122370714D02*
X124182285Y-122827857D01*
X124182285Y-122027857D02*
X123725142Y-122485000D01*
D11*
%TO.P,RV1,3*%
%TO.N,GND*%
X157378000Y-116205000D03*
%TO.P,RV1,2*%
%TO.N,/PC0*%
X154838000Y-113665000D03*
%TO.P,RV1,1*%
%TO.N,+5V*%
X152298000Y-116205000D03*
%TD*%
%TO.P,C1,2*%
%TO.N,GND*%
%TA.AperFunction,SMDPad,CuDef*%
G36*
G01*
X141953000Y-117025000D02*
X141003000Y-117025000D01*
G75*
G02*
X140753000Y-116775000I0J250000D01*
G01*
X140753000Y-116100000D01*
G75*
G02*
X141003000Y-115850000I250000J0D01*
G01*
X141953000Y-115850000D01*
G75*
G02*
X142203000Y-116100000I0J-250000D01*
G01*
X142203000Y-116775000D01*
G75*
G02*
X141953000Y-117025000I-250000J0D01*
G01*
G37*
%TD.AperFunction*%
%TO.P,C1,1*%
%TO.N,+5V*%
%TA.AperFunction,SMDPad,CuDef*%
G36*
G01*
X141953000Y-119100000D02*
X141003000Y-119100000D01*
G75*
G02*
X140753000Y-118850000I0J250000D01*
G01*
X140753000Y-118175000D01*
G75*
G02*
X141003000Y-117925000I250000J0D01*
G01*
X141953000Y-117925000D01*
G75*
G02*
X142203000Y-118175000I0J-250000D01*
G01*
X142203000Y-118850000D01*
G75*
G02*
X141953000Y-119100000I-250000J0D01*
G01*
G37*
%TD.AperFunction*%
%TD*%
D12*
%TO.P,J2,2*%
%TO.N,Net-(J2-Pad2)*%
X118618000Y-98425000D03*
D13*
%TO.P,J2,1*%
%TO.N,Net-(J2-Pad1)*%
X118618000Y-93345000D03*
%TD*%
D12*
%TO.P,J1,2*%
%TO.N,Net-(J1-Pad2)*%
X118618000Y-113665000D03*
D13*
%TO.P,J1,1*%
%TO.N,Net-(J1-Pad1)*%
X118618000Y-108585000D03*
%TD*%
D14*
%TO.P,P9,8*%
%TO.N,/Vcc*%
X145288000Y-84455000D03*
%TO.P,P9,7*%
%TO.N,/PB2*%
X142748000Y-84455000D03*
%TO.P,P9,6*%
%TO.N,/PB3*%
X140208000Y-84455000D03*
%TO.P,P9,5*%
%TO.N,/PB4*%
X137668000Y-84455000D03*
%TO.P,P9,4*%
%TO.N,/PB5*%
X135128000Y-84455000D03*
%TO.P,P9,3*%
%TO.N,/PC5*%
X132588000Y-84455000D03*
%TO.P,P9,2*%
%TO.N,/PC4*%
X130048000Y-84455000D03*
%TO.P,P9,1*%
%TO.N,GND*%
X127508000Y-84455000D03*
%TD*%
D15*
%TO.P,SW2,2*%
%TO.N,/PD2*%
X174498000Y-87835000D03*
%TO.P,SW2,1*%
%TO.N,GND*%
X174498000Y-91235000D03*
%TD*%
%TO.P,SW1,2*%
%TO.N,/PD3*%
X174498000Y-94615000D03*
%TO.P,SW1,1*%
%TO.N,GND*%
X174498000Y-98015000D03*
%TD*%
%TO.P,R4,2*%
%TO.N,GND*%
%TA.AperFunction,SMDPad,CuDef*%
G36*
G01*
X158183000Y-87197500D02*
X160333000Y-87197500D01*
G75*
G02*
X160583000Y-87447500I0J-250000D01*
G01*
X160583000Y-88172500D01*
G75*
G02*
X160333000Y-88422500I-250000J0D01*
G01*
X158183000Y-88422500D01*
G75*
G02*
X157933000Y-88172500I0J250000D01*
G01*
X157933000Y-87447500D01*
G75*
G02*
X158183000Y-87197500I250000J0D01*
G01*
G37*
%TD.AperFunction*%
%TO.P,R4,1*%
%TO.N,Net-(D2-Pad1)*%
%TA.AperFunction,SMDPad,CuDef*%
G36*
G01*
X158183000Y-82572500D02*
X160333000Y-82572500D01*
G75*
G02*
X160583000Y-82822500I0J-250000D01*
G01*
X160583000Y-83547500D01*
G75*
G02*
X160333000Y-83797500I-250000J0D01*
G01*
X158183000Y-83797500D01*
G75*
G02*
X157933000Y-83547500I0J250000D01*
G01*
X157933000Y-82822500D01*
G75*
G02*
X158183000Y-82572500I250000J0D01*
G01*
G37*
%TD.AperFunction*%
%TD*%
%TO.P,R3,2*%
%TO.N,GND*%
%TA.AperFunction,SMDPad,CuDef*%
G36*
G01*
X151833000Y-87197500D02*
X153983000Y-87197500D01*
G75*
G02*
X154233000Y-87447500I0J-250000D01*
G01*
X154233000Y-88172500D01*
G75*
G02*
X153983000Y-88422500I-250000J0D01*
G01*
X151833000Y-88422500D01*
G75*
G02*
X151583000Y-88172500I0J250000D01*
G01*
X151583000Y-87447500D01*
G75*
G02*
X151833000Y-87197500I250000J0D01*
G01*
G37*
%TD.AperFunction*%
%TO.P,R3,1*%
%TO.N,Net-(D1-Pad1)*%
%TA.AperFunction,SMDPad,CuDef*%
G36*
G01*
X151833000Y-82572500D02*
X153983000Y-82572500D01*
G75*
G02*
X154233000Y-82822500I0J-250000D01*
G01*
X154233000Y-83547500D01*
G75*
G02*
X153983000Y-83797500I-250000J0D01*
G01*
X151833000Y-83797500D01*
G75*
G02*
X151583000Y-83547500I0J250000D01*
G01*
X151583000Y-82822500D01*
G75*
G02*
X151833000Y-82572500I250000J0D01*
G01*
G37*
%TD.AperFunction*%
%TD*%
%TO.P,R2,2*%
%TO.N,/PD2*%
%TA.AperFunction,SMDPad,CuDef*%
G36*
G01*
X170493000Y-81257500D02*
X168343000Y-81257500D01*
G75*
G02*
X168093000Y-81007500I0J250000D01*
G01*
X168093000Y-80282500D01*
G75*
G02*
X168343000Y-80032500I250000J0D01*
G01*
X170493000Y-80032500D01*
G75*
G02*
X170743000Y-80282500I0J-250000D01*
G01*
X170743000Y-81007500D01*
G75*
G02*
X170493000Y-81257500I-250000J0D01*
G01*
G37*
%TD.AperFunction*%
%TO.P,R2,1*%
%TO.N,GND*%
%TA.AperFunction,SMDPad,CuDef*%
G36*
G01*
X170493000Y-85882500D02*
X168343000Y-85882500D01*
G75*
G02*
X168093000Y-85632500I0J250000D01*
G01*
X168093000Y-84907500D01*
G75*
G02*
X168343000Y-84657500I250000J0D01*
G01*
X170493000Y-84657500D01*
G75*
G02*
X170743000Y-84907500I0J-250000D01*
G01*
X170743000Y-85632500D01*
G75*
G02*
X170493000Y-85882500I-250000J0D01*
G01*
G37*
%TD.AperFunction*%
%TD*%
%TO.P,R1,2*%
%TO.N,GND*%
%TA.AperFunction,SMDPad,CuDef*%
G36*
G01*
X165803000Y-92277500D02*
X167953000Y-92277500D01*
G75*
G02*
X168203000Y-92527500I0J-250000D01*
G01*
X168203000Y-93252500D01*
G75*
G02*
X167953000Y-93502500I-250000J0D01*
G01*
X165803000Y-93502500D01*
G75*
G02*
X165553000Y-93252500I0J250000D01*
G01*
X165553000Y-92527500D01*
G75*
G02*
X165803000Y-92277500I250000J0D01*
G01*
G37*
%TD.AperFunction*%
%TO.P,R1,1*%
%TO.N,/PD3*%
%TA.AperFunction,SMDPad,CuDef*%
G36*
G01*
X165803000Y-87652500D02*
X167953000Y-87652500D01*
G75*
G02*
X168203000Y-87902500I0J-250000D01*
G01*
X168203000Y-88627500D01*
G75*
G02*
X167953000Y-88877500I-250000J0D01*
G01*
X165803000Y-88877500D01*
G75*
G02*
X165553000Y-88627500I0J250000D01*
G01*
X165553000Y-87902500D01*
G75*
G02*
X165803000Y-87652500I250000J0D01*
G01*
G37*
%TD.AperFunction*%
%TD*%
D16*
%TO.P,P12,8*%
%TO.N,GND*%
X130048000Y-112395000D03*
%TO.P,P12,7*%
%TO.N,/Vcc*%
X130048000Y-109855000D03*
%TO.P,P12,6*%
%TO.N,Net-(J1-Pad1)*%
X130048000Y-107315000D03*
%TO.P,P12,5*%
%TO.N,Net-(J1-Pad2)*%
X130048000Y-104775000D03*
%TO.P,P12,4*%
%TO.N,Net-(J2-Pad1)*%
X130048000Y-102235000D03*
%TO.P,P12,3*%
%TO.N,Net-(J2-Pad2)*%
X130048000Y-99695000D03*
%TO.P,P12,2*%
%TO.N,Net-(P12-Pad2)*%
X130048000Y-97155000D03*
%TO.P,P12,1*%
%TO.N,Net-(P12-Pad1)*%
X130048000Y-94615000D03*
%TD*%
%TO.P,P11,8*%
%TO.N,GND*%
X140208000Y-112395000D03*
%TO.P,P11,7*%
%TO.N,Net-(P11-Pad7)*%
X140208000Y-109855000D03*
%TO.P,P11,6*%
%TO.N,/PB1*%
X140208000Y-107315000D03*
%TO.P,P11,5*%
%TO.N,/PC2*%
X140208000Y-104775000D03*
%TO.P,P11,4*%
%TO.N,/PC3*%
X140208000Y-102235000D03*
%TO.P,P11,3*%
%TO.N,/PD0*%
X140208000Y-99695000D03*
%TO.P,P11,2*%
%TO.N,Net-(P11-Pad2)*%
X140208000Y-97155000D03*
%TO.P,P11,1*%
%TO.N,Net-(P11-Pad1)*%
X140208000Y-94615000D03*
%TD*%
D17*
%TO.P,P10,3*%
%TO.N,/Vcc*%
X169228000Y-100965000D03*
%TO.P,P10,2*%
%TO.N,/PC1*%
X171228000Y-100965000D03*
D18*
%TO.P,P10,1*%
%TO.N,GND*%
X173228000Y-100965000D03*
%TD*%
%TO.P,D2,2*%
%TO.N,/PD5*%
%TA.AperFunction,SMDPad,CuDef*%
G36*
G01*
X160033000Y-80000000D02*
X160033000Y-78750000D01*
G75*
G02*
X160283000Y-78500000I250000J0D01*
G01*
X161033000Y-78500000D01*
G75*
G02*
X161283000Y-78750000I0J-250000D01*
G01*
X161283000Y-80000000D01*
G75*
G02*
X161033000Y-80250000I-250000J0D01*
G01*
X160283000Y-80250000D01*
G75*
G02*
X160033000Y-80000000I0J250000D01*
G01*
G37*
%TD.AperFunction*%
%TO.P,D2,1*%
%TO.N,Net-(D2-Pad1)*%
%TA.AperFunction,SMDPad,CuDef*%
G36*
G01*
X157233000Y-80000000D02*
X157233000Y-78750000D01*
G75*
G02*
X157483000Y-78500000I250000J0D01*
G01*
X158233000Y-78500000D01*
G75*
G02*
X158483000Y-78750000I0J-250000D01*
G01*
X158483000Y-80000000D01*
G75*
G02*
X158233000Y-80250000I-250000J0D01*
G01*
X157483000Y-80250000D01*
G75*
G02*
X157233000Y-80000000I0J250000D01*
G01*
G37*
%TD.AperFunction*%
%TD*%
%TO.P,D1,2*%
%TO.N,/PD6*%
%TA.AperFunction,SMDPad,CuDef*%
G36*
G01*
X155083000Y-80000000D02*
X155083000Y-78750000D01*
G75*
G02*
X155333000Y-78500000I250000J0D01*
G01*
X156083000Y-78500000D01*
G75*
G02*
X156333000Y-78750000I0J-250000D01*
G01*
X156333000Y-80000000D01*
G75*
G02*
X156083000Y-80250000I-250000J0D01*
G01*
X155333000Y-80250000D01*
G75*
G02*
X155083000Y-80000000I0J250000D01*
G01*
G37*
%TD.AperFunction*%
%TO.P,D1,1*%
%TO.N,Net-(D1-Pad1)*%
%TA.AperFunction,SMDPad,CuDef*%
G36*
G01*
X152283000Y-80000000D02*
X152283000Y-78750000D01*
G75*
G02*
X152533000Y-78500000I250000J0D01*
G01*
X153283000Y-78500000D01*
G75*
G02*
X153533000Y-78750000I0J-250000D01*
G01*
X153533000Y-80000000D01*
G75*
G02*
X153283000Y-80250000I-250000J0D01*
G01*
X152533000Y-80250000D01*
G75*
G02*
X152283000Y-80000000I0J250000D01*
G01*
G37*
%TD.AperFunction*%
%TD*%
D14*
%TO.P,P1,1*%
%TO.N,Net-(P1-Pad1)*%
X138938000Y-123825000D03*
%TO.P,P1,2*%
%TO.N,/Vcc*%
X141478000Y-123825000D03*
%TO.P,P1,3*%
%TO.N,/Reset*%
X144018000Y-123825000D03*
%TO.P,P1,4*%
%TO.N,+3V3*%
X146558000Y-123825000D03*
%TO.P,P1,5*%
%TO.N,+5V*%
X149098000Y-123825000D03*
%TO.P,P1,6*%
%TO.N,GND*%
X151638000Y-123825000D03*
%TO.P,P1,7*%
X154178000Y-123825000D03*
%TO.P,P1,8*%
%TO.N,/Vin*%
X156718000Y-123825000D03*
%TD*%
%TO.P,P2,1*%
%TO.N,/PC0*%
X161798000Y-123825000D03*
%TO.P,P2,2*%
%TO.N,/PC1*%
X164338000Y-123825000D03*
%TO.P,P2,3*%
%TO.N,/PC2*%
X166878000Y-123825000D03*
%TO.P,P2,4*%
%TO.N,/PC3*%
X169418000Y-123825000D03*
%TO.P,P2,5*%
%TO.N,/PC4*%
X171958000Y-123825000D03*
%TO.P,P2,6*%
%TO.N,/PC5*%
X174498000Y-123825000D03*
%TD*%
%TO.P,P3,1*%
%TO.N,/PC5(an)*%
X129794000Y-75565000D03*
%TO.P,P3,2*%
%TO.N,/PC4(an)*%
X132334000Y-75565000D03*
%TO.P,P3,3*%
%TO.N,/AREF*%
X134874000Y-75565000D03*
%TO.P,P3,4*%
%TO.N,GND*%
X137414000Y-75565000D03*
%TO.P,P3,5*%
%TO.N,/PB5*%
X139954000Y-75565000D03*
%TO.P,P3,6*%
%TO.N,/PB4*%
X142494000Y-75565000D03*
%TO.P,P3,7*%
%TO.N,/PB3*%
X145034000Y-75565000D03*
%TO.P,P3,8*%
%TO.N,/PB2*%
X147574000Y-75565000D03*
%TO.P,P3,9*%
%TO.N,/PB1*%
X150114000Y-75565000D03*
%TO.P,P3,10*%
%TO.N,/PB0*%
X152654000Y-75565000D03*
%TD*%
%TO.P,P4,1*%
%TO.N,/PD7*%
X156718000Y-75565000D03*
%TO.P,P4,2*%
%TO.N,/PD6*%
X159258000Y-75565000D03*
%TO.P,P4,3*%
%TO.N,/PD5*%
X161798000Y-75565000D03*
%TO.P,P4,4*%
%TO.N,/PD4*%
X164338000Y-75565000D03*
%TO.P,P4,5*%
%TO.N,/PD3*%
X166878000Y-75565000D03*
%TO.P,P4,6*%
%TO.N,/PD2*%
X169418000Y-75565000D03*
%TO.P,P4,7*%
%TO.N,/PD1(RX)*%
X171958000Y-75565000D03*
%TO.P,P4,8*%
%TO.N,/PD0(TX)*%
X174498000Y-75565000D03*
%TD*%
D19*
%TO.N,/PB1*%
X147828000Y-89535000D03*
%TD*%
D20*
%TO.N,+5V*%
X148368000Y-118015000D02*
X149098000Y-118745000D01*
X141478000Y-118015000D02*
X148368000Y-118015000D01*
X149098000Y-118745000D02*
X149098000Y-123825000D01*
X149758000Y-118745000D02*
X152298000Y-116205000D01*
X149098000Y-118745000D02*
X149758000Y-118745000D01*
%TO.N,GND*%
X136707348Y-75565000D02*
X137414000Y-75565000D01*
X127508000Y-84455000D02*
X127817348Y-84455000D01*
X152908000Y-87810000D02*
X148211990Y-83113990D01*
X129865010Y-83113990D02*
X137414000Y-75565000D01*
X128849010Y-83113990D02*
X129865010Y-83113990D01*
X127508000Y-84455000D02*
X128849010Y-83113990D01*
X152908000Y-87810000D02*
X159258000Y-87810000D01*
X159258000Y-87810000D02*
X159258000Y-88265000D01*
X137414000Y-75565000D02*
X137414000Y-77851000D01*
X137414000Y-77851000D02*
X141478000Y-81915000D01*
X147013000Y-81915000D02*
X148211990Y-83113990D01*
X141478000Y-81915000D02*
X147013000Y-81915000D01*
X149098000Y-113210000D02*
X149098000Y-113665000D01*
X142748000Y-113665000D02*
X141478000Y-112395000D01*
X149098000Y-113665000D02*
X142748000Y-113665000D01*
X141478000Y-116935000D02*
X141478000Y-112395000D01*
X159258000Y-87810000D02*
X164793000Y-93345000D01*
X164793000Y-93345000D02*
X165608000Y-93345000D01*
X166878000Y-92890000D02*
X172413000Y-98425000D01*
X174088000Y-98425000D02*
X174498000Y-98015000D01*
X172413000Y-98425000D02*
X174088000Y-98425000D01*
X174498000Y-99695000D02*
X173228000Y-100965000D01*
X174498000Y-98015000D02*
X174498000Y-99695000D01*
X174498000Y-91235000D02*
X176198000Y-91235000D01*
X176198000Y-91235000D02*
X177038000Y-92075000D01*
X177038000Y-92075000D02*
X177038000Y-97155000D01*
X176178000Y-98015000D02*
X174498000Y-98015000D01*
X177038000Y-97155000D02*
X176178000Y-98015000D01*
X169418000Y-85270000D02*
X169418000Y-86995000D01*
X173658000Y-91235000D02*
X174498000Y-91235000D01*
X169418000Y-86995000D02*
X173658000Y-91235000D01*
X149098000Y-109855000D02*
X165608000Y-93345000D01*
X149098000Y-113665000D02*
X149098000Y-109855000D01*
X141478000Y-112395000D02*
X140208000Y-112395000D01*
%TO.N,/PD6*%
X155708000Y-79115000D02*
X159258000Y-75565000D01*
X155708000Y-79375000D02*
X155708000Y-79115000D01*
%TO.N,Net-(D1-Pad1)*%
X152908000Y-79375000D02*
X152908000Y-83185000D01*
%TO.N,/PD5*%
X160658000Y-76705000D02*
X161798000Y-75565000D01*
X160658000Y-79375000D02*
X160658000Y-76705000D01*
%TO.N,Net-(D2-Pad1)*%
X157858000Y-81785000D02*
X159258000Y-83185000D01*
X157858000Y-79375000D02*
X157858000Y-81785000D01*
%TO.N,Net-(J1-Pad1)*%
X119888000Y-107315000D02*
X118618000Y-108585000D01*
X130048000Y-107315000D02*
X119888000Y-107315000D01*
%TO.N,/Vcc*%
X145288000Y-84455000D02*
X136398000Y-93345000D01*
X136398000Y-103505000D02*
X130048000Y-109855000D01*
X136398000Y-93345000D02*
X136398000Y-103505000D01*
X141478000Y-121285000D02*
X141478000Y-123825000D01*
X130048000Y-109855000D02*
X141478000Y-121285000D01*
%TO.N,/PC0*%
X161798000Y-123825000D02*
X161798000Y-121285000D01*
X161798000Y-121285000D02*
X160528000Y-120015000D01*
X160528000Y-120015000D02*
X156718000Y-120015000D01*
X154838000Y-118135000D02*
X154838000Y-113665000D01*
X156718000Y-120015000D02*
X154838000Y-118135000D01*
%TO.N,/PC1*%
X171228000Y-116935000D02*
X164338000Y-123825000D01*
X171228000Y-100965000D02*
X171228000Y-116935000D01*
%TO.N,/PB5*%
X140208000Y-75819000D02*
X139954000Y-75565000D01*
%TO.N,/PB4*%
X142748000Y-75819000D02*
X142494000Y-75565000D01*
%TO.N,/PB3*%
X145288000Y-75819000D02*
X145034000Y-75565000D01*
%TO.N,/PB2*%
X147828000Y-75819000D02*
X147574000Y-75565000D01*
%TO.N,/PB1*%
X141478000Y-107315000D02*
X147828000Y-107315000D01*
X147828000Y-107315000D02*
X147828000Y-89535000D01*
X147828000Y-89535000D02*
X147828000Y-89535000D01*
X141478000Y-107315000D02*
X140208000Y-107315000D01*
%TO.N,/PD3*%
X166878000Y-75565000D02*
X166878000Y-88265000D01*
X166878000Y-88265000D02*
X168148000Y-88265000D01*
X168148000Y-88265000D02*
X174498000Y-94615000D01*
%TO.N,/PD2*%
X169418000Y-75565000D02*
X169418000Y-80645000D01*
X174498000Y-81915000D02*
X174498000Y-87835000D01*
X173228000Y-80645000D02*
X174498000Y-81915000D01*
X169418000Y-80645000D02*
X173228000Y-80645000D01*
%TO.N,Net-(J2-Pad2)*%
X119888000Y-99695000D02*
X118618000Y-98425000D01*
X130048000Y-99695000D02*
X119888000Y-99695000D01*
%TD*%
M02*
